<svg width="1024" height="1024" viewBox="0 0 1024 1024" fill="none" xmlns="http://www.w3.org/2000/svg">
  <rect width="1024" height="1024" rx="240" fill="#3F51B5"/>
  <g filter="url(#shadow)">
    <circle cx="512" cy="512" r="320" fill="#fff" fill-opacity="0.95"/>
    <path d="M512 320c-106 0-192 86-192 192 0 106 86 192 192 192s192-86 192-192c0-106-86-192-192-192zm0 352a160 160 0 1 1 0-320 160 160 0 0 1 0 320zm0-256a96 96 0 1 0 0 192 96 96 0 0 0 0-192z" fill="#3F51B5"/>
    <path d="M512 384a128 128 0 1 1 0 256 128 128 0 0 1 0-256zm0 224a96 96 0 1 0 0-192 96 96 0 0 0 0 192z" fill="#7986CB"/>
    <text x="512" y="570" text-anchor="middle" font-size="120" font-family="Arial, Helvetica, sans-serif" fill="#3F51B5" font-weight="bold">GVPN</text>
  </g>
  <defs>
    <filter id="shadow" x="112" y="112" width="800" height="800" filterUnits="userSpaceOnUse" color-interpolation-filters="sRGB">
      <feDropShadow dx="0" dy="16" stdDeviation="24" flood-color="#263238" flood-opacity="0.18"/>
    </filter>
  </defs>
</svg>
